<?xml version="1.0" encoding="UTF-8"?><svg id="_レイヤー_1" xmlns="http://www.w3.org/2000/svg" viewBox="0 0 36.04 40.02"><defs><style>.cls-1{fill:#382b29;}</style></defs><g id="_レイヤー_2"><g id="_デザイン"><path class="cls-1" d="M35.81,6.91c-.19-.25-.48-.39-.79-.39H9.52c-.55,0-1,.45-1,1s.45,1,1,1h24.21l-4.52,17.5H6.71L2.02,.84C1.93,.29,1.42-.08,.87,.01c-.01,0-.02,0-.03,0C.29,.11-.08,.62,.01,1.17c0,.01,0,.02,0,.03L4.87,27.2c.09,.48,.51,.83,1,.82H30.02c.47,.01,.88-.3,1-.75l5-19.5c.07-.3-.01-.62-.21-.86ZM10.02,30.02c-2.76,0-5,2.24-5,5s2.24,5,5,5,5-2.24,5-5-2.24-5-5-5Zm0,8c-1.66,0-3-1.34-3-3s1.34-3,3-3,3,1.34,3,3-1.34,3-3,3Zm15-8c-2.76,0-5,2.24-5,5s2.24,5,5,5,5-2.24,5-5-2.24-5-5-5Zm0,8c-1.66,0-3-1.34-3-3s1.34-3,3-3,3,1.34,3,3-1.34,3-3,3Z"/></g></g></svg>