<?xml version="1.0" encoding="utf-8"?>
<!-- Generator: Adobe Illustrator 25.0.0, SVG Export Plug-In . SVG Version: 6.00 Build 0)  -->
<svg version="1.1" id="レイヤー_1" xmlns="http://www.w3.org/2000/svg" xmlns:xlink="http://www.w3.org/1999/xlink" x="0px"
	 y="0px" viewBox="0 0 28 28" style="enable-background:new 0 0 28 28;" xml:space="preserve">
<style type="text/css">
	.st0{fill:#F5F4F5;}
</style>
<g>
	<g id="XMLID_1_">
		<path id="XMLID_6_" class="st0" d="M18.8,27.4H9.6c-4,0-7.2-3.2-7.2-7.2V11c0-4,3.2-7.2,7.2-7.2h9.2c4,0,7.2,3.2,7.2,7.2v9.2
			C26,24.2,22.8,27.4,18.8,27.4z M9.6,5.5c-3,0-5.5,2.5-5.5,5.5v9.2c0,3,2.5,5.5,5.5,5.5h9.2c3,0,5.5-2.5,5.5-5.5V11
			c0-3-2.5-5.5-5.5-5.5H9.6z"/>
		<path id="XMLID_3_" class="st0" d="M14.2,21.6c-3.3,0-6-2.7-6-6c0-3.3,2.7-6,6-6c3.3,0,6,2.7,6,6C20.2,18.9,17.5,21.6,14.2,21.6z
			 M14.2,11.4c-2.3,0-4.2,1.9-4.2,4.2c0,2.3,1.9,4.2,4.2,4.2c2.3,0,4.2-1.9,4.2-4.2C18.4,13.3,16.5,11.4,14.2,11.4z"/>
		<path id="XMLID_2_" class="st0" d="M22.4,9c0,0.9-0.7,1.6-1.6,1.6c-0.9,0-1.6-0.7-1.6-1.6c0-0.9,0.7-1.6,1.6-1.6
			C21.7,7.4,22.4,8.1,22.4,9z"/>
	</g>
</g>
</svg>
