<?xml version="1.0" encoding="UTF-8"?><svg id="_レイヤー_1" xmlns="http://www.w3.org/2000/svg" viewBox="0 0 40.01 40"><defs><style>.cls-1{fill:#382b29;}</style></defs><g id="_レイヤー_2"><g id="_デザイン"><path class="cls-1" d="M19.52,19.54c5.4,0,9.77-4.37,9.77-9.77S24.92,0,19.52,0,9.75,4.37,9.75,9.77h0c0,5.39,4.38,9.76,9.77,9.77Zm0-17.54c4.29,0,7.77,3.48,7.77,7.77s-3.48,7.77-7.77,7.77-7.77-3.48-7.77-7.77c0-4.29,3.48-7.76,7.77-7.77Zm18.33,29.28c-2.22-5.44-5.51-9.48-9.53-11.67-.49-.26-1.09-.08-1.35,.41-.26,.49-.08,1.09,.4,1.35,4.55,2.49,7.2,7.17,8.64,10.63,.78,1.94,1.39,3.95,1.81,6H2.21c.42-2.05,1.02-4.06,1.8-6,1.42-3.49,4.07-8.18,8.63-10.66,.46-.27,.63-.87,.37-1.34-.26-.49-.87-.67-1.36-.4,0,0,0,0,0,0-4,2.19-7.31,6.23-9.52,11.67-.99,2.44-1.7,4.99-2.12,7.59-.04,.29,.05,.58,.24,.8,.19,.22,.47,.34,.76,.34H39.01c.29,0,.56-.12,.75-.34,.19-.22,.28-.51,.24-.8-.43-2.6-1.15-5.14-2.15-7.58Z"/></g></g></svg>