<?xml version="1.0" encoding="UTF-8"?><svg id="Outline" xmlns="http://www.w3.org/2000/svg" viewBox="0 0 40 40"><defs><style>.cls-1{fill:none;}.cls-2{fill:#fff;}</style></defs><path class="cls-2" d="M35.94,4.69s-.02-.06-.03-.1c-.09-.22-.27-.4-.49-.49-.03-.01-.07-.03-.1-.04-.08-.03-.16-.04-.25-.05-.03,0-.07,0-.1,0-.11,0-.23,.02-.34,.06h0s0,0,0,0L4.63,16.07c-.51,.21-.76,.79-.56,1.3,.1,.26,.31,.46,.57,.56l12.59,4.84,4.84,12.58c.15,.38,.52,.64,.93,.64h0c.41,0,.78-.25,.93-.63L35.93,5.37c.04-.11,.06-.22,.06-.34,0-.03,0-.06,0-.1,0-.09-.02-.17-.05-.25Zm-5.09,3.05l-13.1,13.1-10.01-3.85L30.85,7.74Zm-7.83,24.52l-3.85-10.01,13.1-13.1-9.24,23.11Z"/><rect class="cls-1" width="40" height="40"/></svg>