<?xml version="1.0" encoding="UTF-8"?><svg id="_レイヤー_1" xmlns="http://www.w3.org/2000/svg" viewBox="0 0 40.05 34.02"><defs><style>.cls-1{fill:#382b29;}</style></defs><g id="_レイヤー_2"><g id="_デザイン"><path class="cls-1" d="M20.02,34.02c-.26,0-.51-.11-.7-.29L3.15,17.87C-.97,13.87-1.06,7.3,2.94,3.19c.03-.03,.05-.05,.08-.08,4.1-4.11,10.74-4.15,14.88-.09l2.12,2.09,2.12-2.09c4.15-4.06,10.79-4.02,14.88,.1,4.05,4.05,4.04,10.62-.01,14.67-.03,.03-.06,.06-.09,.08l-16.2,15.86c-.19,.18-.44,.29-.7,.29ZM10.52,2.02c-2.25,0-4.41,.91-6,2.51-3.27,3.27-3.26,8.57,0,11.84,.02,.02,.05,.05,.07,.07l15.42,15.18,15.47-15.18c3.31-3.23,3.38-8.53,.15-11.84-.02-.02-.05-.05-.07-.07-3.3-3.31-8.65-3.34-12-.08l-2.85,2.77c-.39,.38-1.01,.38-1.4,0l-2.82-2.77c-1.6-1.56-3.75-2.43-5.98-2.43Z"/></g></g></svg>